<svg width="61" height="60" viewBox="0 0 61 60" fill="none" xmlns="http://www.w3.org/2000/svg">
<path d="M34 23.5C34 32.0604 26.3888 39 17 39C7.61116 39 0 32.0604 0 23.5C0 14.9396 7.61116 8 17 8C26.3888 8 34 14.9396 34 23.5Z" fill="url(#paint0_linear_114_4)"/>
<ellipse cx="44" cy="15.5" rx="17" ry="15.5" fill="url(#paint1_linear_114_4)"/>
<path d="M56 44.5C56 53.0604 48.3888 60 39 60C29.6112 60 22 53.0604 22 44.5C22 35.9396 29.6112 29 39 29C48.3888 29 56 35.9396 56 44.5Z" fill="url(#paint2_linear_114_4)"/>
<defs>
<linearGradient id="paint0_linear_114_4" x1="17" y1="8" x2="17" y2="39" gradientUnits="userSpaceOnUse">
<stop stop-color="white"/>
<stop offset="1" stop-color="#F3B41B"/>
</linearGradient>
<linearGradient id="paint1_linear_114_4" x1="44" y1="0" x2="44" y2="31" gradientUnits="userSpaceOnUse">
<stop stop-color="#D9D9D9"/>
<stop offset="1" stop-color="#106B3A"/>
</linearGradient>
<linearGradient id="paint2_linear_114_4" x1="39" y1="29" x2="39" y2="60" gradientUnits="userSpaceOnUse">
<stop stop-color="white"/>
<stop offset="1" stop-color="#F3B41B"/>
</linearGradient>
</defs>
</svg>
